<mxfile host="app.diagrams.net" agent="Mozilla/5.0 (Windows NT 10.0; Win64; x64) AppleWebKit/537.36 (KHTML, like Gecko) Chrome/133.0.0.0 Safari/537.36" version="26.1.0">
  <diagram name="Страница — 1" id="cJoGJ3xOIOmyinLPfhCT">
    <mxGraphModel dx="1400" dy="516" grid="1" gridSize="10" guides="1" tooltips="1" connect="1" arrows="1" fold="1" page="1" pageScale="1" pageWidth="827" pageHeight="1169" math="0" shadow="0">
      <root>
        <mxCell id="0" />
        <mxCell id="1" parent="0" />
        <mxCell id="A9SU0iNLX3xnFoazCiAV-4" style="edgeStyle=orthogonalEdgeStyle;rounded=0;orthogonalLoop=1;jettySize=auto;html=1;exitX=0.75;exitY=1;exitDx=0;exitDy=0;entryX=1;entryY=0;entryDx=0;entryDy=0;" edge="1" parent="1" source="A9SU0iNLX3xnFoazCiAV-2" target="A9SU0iNLX3xnFoazCiAV-3">
          <mxGeometry relative="1" as="geometry" />
        </mxCell>
        <mxCell id="A9SU0iNLX3xnFoazCiAV-2" value="" style="rounded=0;whiteSpace=wrap;html=1;rotation=75;gradientColor=none;fillColor=#000000;" vertex="1" parent="1">
          <mxGeometry x="285.85" y="392.96" width="230" height="17.63" as="geometry" />
        </mxCell>
        <mxCell id="A9SU0iNLX3xnFoazCiAV-3" value="" style="ellipse;whiteSpace=wrap;html=1;aspect=fixed;gradientColor=none;fillColor=#000000;" vertex="1" parent="1">
          <mxGeometry x="390" y="450" width="30" height="30" as="geometry" />
        </mxCell>
        <mxCell id="A9SU0iNLX3xnFoazCiAV-8" value="" style="endArrow=classic;startArrow=classic;html=1;rounded=0;entryX=0;entryY=0.5;entryDx=0;entryDy=0;" edge="1" parent="1" target="A9SU0iNLX3xnFoazCiAV-3">
          <mxGeometry width="50" height="50" relative="1" as="geometry">
            <mxPoint x="360" y="480" as="sourcePoint" />
            <mxPoint x="380" y="470" as="targetPoint" />
          </mxGeometry>
        </mxCell>
        <mxCell id="A9SU0iNLX3xnFoazCiAV-11" value="" style="pointerEvents=1;verticalLabelPosition=bottom;shadow=0;dashed=0;align=center;html=1;verticalAlign=top;shape=mxgraph.electrical.resistors.variable_resistor_1;" vertex="1" parent="1">
          <mxGeometry x="180" y="310" width="100" height="60" as="geometry" />
        </mxCell>
        <mxCell id="A9SU0iNLX3xnFoazCiAV-13" value="" style="pointerEvents=1;verticalLabelPosition=bottom;shadow=0;dashed=0;align=center;html=1;verticalAlign=top;shape=mxgraph.electrical.electro-mechanical.springReturn3;elSwitchState=off;" vertex="1" parent="1">
          <mxGeometry x="310" y="444" width="75" height="26" as="geometry" />
        </mxCell>
        <mxCell id="A9SU0iNLX3xnFoazCiAV-14" value="" style="ellipse;whiteSpace=wrap;html=1;aspect=fixed;" vertex="1" parent="1">
          <mxGeometry x="400" y="460" width="10" height="10" as="geometry" />
        </mxCell>
        <mxCell id="A9SU0iNLX3xnFoazCiAV-16" value="" style="curved=1;endArrow=classic;html=1;rounded=0;" edge="1" parent="1">
          <mxGeometry width="50" height="50" relative="1" as="geometry">
            <mxPoint x="360" y="320" as="sourcePoint" />
            <mxPoint x="180" y="460" as="targetPoint" />
            <Array as="points">
              <mxPoint x="320" y="330" />
              <mxPoint x="270" y="350" />
              <mxPoint x="230" y="380" />
              <mxPoint x="200" y="420" />
            </Array>
          </mxGeometry>
        </mxCell>
      </root>
    </mxGraphModel>
  </diagram>
</mxfile>
